<?xml version="1.0" standalone="no"?>
<!DOCTYPE svg PUBLIC "-//W3C//DTD SVG 20010904//EN"
 "http://www.w3.org/TR/2001/REC-SVG-20010904/DTD/svg10.dtd">
<svg version="1.0" xmlns="http://www.w3.org/2000/svg"
 width="260.000000pt" height="260.000000pt" viewBox="0 0 260.000000 260.000000"
 preserveAspectRatio="xMidYMid meet">
<metadata>
Created by potrace 1.14, written by Peter Selinger 2001-2017
</metadata>
<g transform="translate(0.000000,260.000000) scale(0.100000,-0.100000)"
fill="#000000" stroke="none">
<path d="M1168 2595 c-2 -2 -26 -6 -53 -10 -142 -17 -424 -112 -408 -138 3 -6
2 -7 -4 -4 -10 6 -135 -63 -161 -90 -7 -7 -16 -13 -20 -13 -16 -1 -222 -197
-222 -211 0 -5 -8 -16 -18 -26 -24 -25 -72 -90 -72 -99 0 -4 -6 -15 -14 -23
-23 -27 -74 -126 -102 -197 -34 -89 -53 -154 -47 -154 3 0 1 -6 -5 -12 -5 -7
-11 -29 -13 -48 -2 -19 -5 -39 -8 -45 -10 -19 -15 -100 -15 -225 0 -141 5
-195 29 -295 21 -88 20 -86 29 -110 47 -124 77 -189 118 -258 196 -323 495
-534 868 -614 130 -27 382 -25 518 5 368 82 668 299 857 622 70 120 132 288
151 410 3 19 9 55 14 80 9 47 5 302 -5 360 -3 19 -13 63 -22 98 -8 35 -16 68
-17 75 -4 18 -16 50 -27 69 -5 10 -9 23 -9 30 0 20 -89 189 -136 258 -75 112
-233 275 -303 314 -9 5 -18 12 -21 16 -3 4 -39 27 -80 51 -152 91 -271 136
-450 170 -59 11 -344 22 -352 14z"/>
</g>
</svg>
